<?xml version="1.0" encoding="UTF-8" standalone="no"?>
<!-- Created with Inkscape (http://www.inkscape.org/) -->

<svg
   width="53.429588mm"
   height="60.030319mm"
   viewBox="0 0 53.429588 60.030319"
   version="1.1"
   id="svg1"
   xmlns:inkscape="http://www.inkscape.org/namespaces/inkscape"
   xmlns:sodipodi="http://sodipodi.sourceforge.net/DTD/sodipodi-0.dtd"
   xmlns="http://www.w3.org/2000/svg"
   xmlns:svg="http://www.w3.org/2000/svg">
  <sodipodi:namedview
     id="namedview1"
     pagecolor="#ffffff"
     bordercolor="#000000"
     borderopacity="0.25"
     inkscape:showpageshadow="2"
     inkscape:pageopacity="0.0"
     inkscape:pagecheckerboard="0"
     inkscape:deskcolor="#d1d1d1"
     inkscape:document-units="mm">
    <inkscape:page
       x="0"
       y="0"
       width="53.429588"
       height="60.030319"
       id="page2"
       margin="0"
       bleed="0" />
  </sodipodi:namedview>
  <defs
     id="defs1" />
  <g
     inkscape:label="Layer 1"
     inkscape:groupmode="layer"
     id="layer1"
     transform="translate(-11.449624,-10.128197)">
    <path
       d="m 36.173384,69.688536 c -1.554768,-0.71757 -2.21385,-1.58485 -3.073087,-4.04382 -1.343177,-3.84391 -3.257707,-6.04722 -6.623082,-7.62207 -1.979338,-0.92624 -4.427326,-1.29556 -6.575705,-0.99205 -0.800365,0.11307 -2.288646,0.27253 -3.307292,0.35437 -1.648932,0.13246 -1.952968,0.0803 -2.771829,-0.47539 -2.873335,-1.94998 -3.10996,-5.20575 -0.588439,-8.096478 1.677119,-1.92269 2.251544,-2.82905 2.90499,-4.58369 1.608829,-4.32003 0.627247,-8.96176 -2.656088,-12.56016 -2.008252,-2.20096 -2.47407,-3.86959 -1.638506,-5.86938 1.073444,-2.56911 3.312742,-3.57417 6.337372,-2.84439 2.962013,0.71468 6.329799,0.37158 8.819286,-0.89846 1.335074,-0.6811 3.583611,-2.7304 4.57182,-4.16671 0.440876,-0.64079 1.091856,-2.01848 1.446623,-3.06154 0.354766,-1.04306 0.911878,-2.29103 1.238025,-2.77328 0.738095,-1.09136 2.40117,-1.92729 3.834307,-1.92729 2.500847,0 3.972815,1.26677 4.977526,4.28364 1.339671,4.02267 3.95864,6.82508 7.335211,8.10508 2.213145,0.83896 4.751765,1.02388 7.468955,0.46968 1.91704,-0.391 2.24749,-0.39364 3.47947,-0.0278 1.97386,0.58618 3.5182,2.60128 3.52626,4.60118 0.004,1.07995 -0.78228,2.62184 -2.09793,4.11219 -4.66287,5.28201 -4.62938,11.6751 0.0892,17.02651 1.78262,2.02171 2.18976,3.234448 1.72968,5.152268 -0.22203,0.92553 -0.62266,1.63043 -1.32692,2.33469 -1.13285,1.13285 -2.19638,1.4415 -4.13673,1.20053 -5.69249,-0.70693 -8.07772,-0.397 -10.866049,1.41192 -2.612741,1.695 -4.329593,4.06275 -5.271498,7.27005 -0.992099,3.37822 -3.950401,4.94735 -6.825553,3.62038 z"
       style="fill:#000000"
       id="path1" />
  </g>
</svg>
