<?xml version="1.0" encoding="UTF-8" standalone="no"?>
<!-- Created with Inkscape (http://www.inkscape.org/) -->

<svg
   width="210mm"
   height="297mm"
   viewBox="0 0 210 297"
   version="1.1"
   id="svg1"
   xml:space="preserve"
   xmlns:inkscape="http://www.inkscape.org/namespaces/inkscape"
   xmlns:sodipodi="http://sodipodi.sourceforge.net/DTD/sodipodi-0.dtd"
   xmlns="http://www.w3.org/2000/svg"
   xmlns:svg="http://www.w3.org/2000/svg"><sodipodi:namedview
     id="namedview1"
     pagecolor="#ffffff"
     bordercolor="#000000"
     borderopacity="0.25"
     inkscape:showpageshadow="2"
     inkscape:pageopacity="0.0"
     inkscape:pagecheckerboard="0"
     inkscape:deskcolor="#d1d1d1"
     inkscape:document-units="mm"><inkscape:page
       x="0"
       y="0"
       width="210"
       height="297"
       id="page2"
       margin="0"
       bleed="0" /></sodipodi:namedview><defs
     id="defs1" /><g
     inkscape:label="Layer 1"
     inkscape:groupmode="layer"
     id="layer1"><path
       style="fill:#000000"
       d="m 49.002367,103.00406 c -2.63748,-0.3367 -7.01065,-1.31076 -9.50848,-2.11788 -14.73176,-4.760254 -26.59655,-16.647747 -31.2061537,-31.265897 -1.868738,-5.92621 -2.411944,-10.04132 -2.202304,-16.68377 0.227838,-7.21905 1.64215,-12.94146 4.8229607,-19.51405 1.237461,-2.557 3.858404,-6.76172 5.349207,-8.5816 2.719528,-3.31984 4.99552,-5.59658 8.23939,-8.242102 1.43089,-1.166951 5.42029,-3.710284 7.70434,-4.911694 4.79986,-2.5247226 11.03136,-4.4497106 16.454,-5.0828466 3.49279,-0.407811 11.06929,-0.204487 14.23767,0.382086 19.04713,3.5262536 34.05412,17.6813766 38.733503,36.5348166 1.61419,6.50363 1.61419,15.98595 0,22.48958 -4.840803,19.50378 -20.607413,33.866493 -40.354963,36.761687 -2.57343,0.37729 -10.0261,0.51801 -12.26917,0.23167 z m 9.48094,-27.187047 c 4.30726,-0.82411 7.81074,-2.70999 11.04744,-5.94669 4.50489,-4.5049 6.57435,-9.8602 6.24579,-16.16274 -0.16834,-3.22923 -0.64511,-5.21324 -1.88427,-7.84108 -3.84794,-8.1602 -11.6897,-12.92127 -20.51214,-12.45382 -3.12315,0.16548 -5.01762,0.60635 -7.78597,1.8119 -4.3218,1.88204 -8.09339,5.51639 -10.22328,9.85126 -1.64149,3.34088 -2.11101,5.10696 -2.29476,8.63174 -0.55322,10.61203 6.689,19.95774 17.11688,22.08845 2.3206,0.47417 5.87471,0.48316 8.29031,0.021 z"
       id="path1" /></g></svg>
