<?xml version="1.0" encoding="UTF-8" standalone="no"?>
<!-- Created with Inkscape (http://www.inkscape.org/) -->

<svg
   version="1.1"
   id="svg1"
   width="266.66666"
   height="266.66666"
   viewBox="0 0 266.66666 266.66666"
   sodipodi:docname="Design File.ai"
   xmlns:inkscape="http://www.inkscape.org/namespaces/inkscape"
   xmlns:sodipodi="http://sodipodi.sourceforge.net/DTD/sodipodi-0.dtd"
   xmlns="http://www.w3.org/2000/svg"
   xmlns:svg="http://www.w3.org/2000/svg">
  <defs
     id="defs1">
    <clipPath
       clipPathUnits="userSpaceOnUse"
       id="clipPath17">
      <path
         d="M 0,200 H 200 V 0 H 0 Z"
         transform="translate(-35.300026,-100.00001)"
         id="path17" />
    </clipPath>
  </defs>
  <sodipodi:namedview
     id="namedview1"
     pagecolor="#ffffff"
     bordercolor="#000000"
     borderopacity="0.25"
     inkscape:showpageshadow="2"
     inkscape:pageopacity="0.0"
     inkscape:pagecheckerboard="0"
     inkscape:deskcolor="#d1d1d1">
    <inkscape:page
       x="0"
       y="0"
       inkscape:label="7"
       id="page15"
       width="266.66666"
       height="266.66666"
       margin="3.4666533 3.4666667 3.4666667 3.4666133"
       bleed="0" />
  </sodipodi:namedview>
  <g
     id="layer-MC0"
     inkscape:groupmode="layer"
     inkscape:label="Layer 1"
     transform="translate(-1720)">
    <path
       id="path16"
       d="M 0,0 16.2,28 32.4,56 H 64.8 97.2 L 113.4,28 129.6,0 113.4,-28.1 97.2,-56.1 H 64.7 32.3 l -16.2,28 z m -32.7,0 c 0,53.8 43.6,97.4 97.4,97.4 53.8,0 97.4,-43.6 97.4,-97.4 0,-53.8 -43.6,-97.4 -97.4,-97.4 -53.8,0 -97.4,43.6 -97.4,97.4"
       style="fill:#000000;fill-opacity:1;fill-rule:evenodd;stroke:none"
       transform="matrix(1.3333333,0,0,-1.3333333,1767.0667,133.33333)"
       clip-path="url(#clipPath17)" />
  </g>
</svg>
