<?xml version="1.0" encoding="UTF-8" standalone="no"?>
<!-- Created with Inkscape (http://www.inkscape.org/) -->

<svg
   version="1.1"
   id="svg1"
   width="266.66666"
   height="266.66666"
   viewBox="0 0 266.66666 266.66666"
   sodipodi:docname="Design File.ai"
   xmlns:inkscape="http://www.inkscape.org/namespaces/inkscape"
   xmlns:sodipodi="http://sodipodi.sourceforge.net/DTD/sodipodi-0.dtd"
   xmlns="http://www.w3.org/2000/svg"
   xmlns:svg="http://www.w3.org/2000/svg">
  <defs
     id="defs1">
    <clipPath
       clipPathUnits="userSpaceOnUse"
       id="clipPath55">
      <path
         d="M 0,200 H 200 V 0 H 0 Z"
         transform="translate(-155.20843,-92.149702)"
         id="path55" />
    </clipPath>
  </defs>
  <sodipodi:namedview
     id="namedview1"
     pagecolor="#ffffff"
     bordercolor="#000000"
     borderopacity="0.25"
     inkscape:showpageshadow="2"
     inkscape:pageopacity="0.0"
     inkscape:pagecheckerboard="0"
     inkscape:deskcolor="#d1d1d1">
    <inkscape:page
       x="0"
       y="0"
       inkscape:label="15"
       id="page53"
       width="266.66666"
       height="266.66666"
       margin="3.38184 1.104 3.552 3.46668"
       bleed="0" />
  </sodipodi:namedview>
  <g
     id="layer-MC0"
     inkscape:groupmode="layer"
     inkscape:label="Layer 1"
     transform="translate(-4013.333)">
    <path
       id="path54"
       d="m 0,0 c -3.8,-27.076 -27.1,-47.977 -55.208,-47.977 -30.752,0 -55.764,25.012 -55.764,55.764 0,30.752 25.012,55.763 55.764,55.763 28.513,0 50.076,-21.507 53.358,-49.15 h 45.814 c -3.401,50.714 -47.596,90.787 -99.172,90.787 -53.8,0 -97.4,-43.6 -97.4,-97.4 0,-53.8 43.6,-97.4 97.4,-97.4 51.178,0 93.124,39.455 97.09,89.613 z"
       style="fill:#000000;fill-opacity:1;fill-rule:evenodd;stroke:none"
       transform="matrix(1.3333333,0,0,-1.3333333,4220.2779,143.8004)"
       clip-path="url(#clipPath55)" />
  </g>
</svg>
