<?xml version="1.0" encoding="UTF-8" standalone="no"?>
<!-- Created with Inkscape (http://www.inkscape.org/) -->

<svg
   version="1.1"
   id="svg1"
   width="266.66666"
   height="266.66666"
   viewBox="0 0 266.66666 266.66666"
   sodipodi:docname="Design File.ai"
   xmlns:inkscape="http://www.inkscape.org/namespaces/inkscape"
   xmlns:sodipodi="http://sodipodi.sourceforge.net/DTD/sodipodi-0.dtd"
   xmlns="http://www.w3.org/2000/svg"
   xmlns:svg="http://www.w3.org/2000/svg">
  <defs
     id="defs1">
    <clipPath
       clipPathUnits="userSpaceOnUse"
       id="clipPath4">
      <path
         d="M 0,200 H 200 V 0 H 0 Z"
         transform="translate(-2.9500001,-100.06361)"
         id="path4" />
    </clipPath>
  </defs>
  <sodipodi:namedview
     id="namedview1"
     pagecolor="#ffffff"
     bordercolor="#000000"
     borderopacity="0.25"
     inkscape:showpageshadow="2"
     inkscape:pageopacity="0.0"
     inkscape:pagecheckerboard="0"
     inkscape:deskcolor="#d1d1d1">
    <inkscape:page
       x="0"
       y="0"
       inkscape:label="2"
       id="page2"
       width="266.66666"
       height="266.66666"
       margin="21.418133 3.9333334 21.247999 3.9333467"
       bleed="0" />
  </sodipodi:namedview>
  <g
     id="layer-MC0"
     inkscape:groupmode="layer"
     inkscape:label="Layer 1"
     transform="translate(-286.66665)">
    <path
       id="path3"
       d="M 0,0 24.3,42 48.5,84 H 97 145.5 L 169.8,42 194.1,0 169.8,-42 145.5,-84 H 97 48.5 l -24.2,42 z m 50.1,0 c 0,25.9 21,46.9 46.9,46.9 25.9,0 46.9,-21 46.9,-46.9 0,-25.9 -21,-46.9 -46.9,-46.9 -25.9,0 -46.9,21 -46.9,46.9"
       style="fill:#000000;fill-opacity:1;fill-rule:evenodd;stroke:none"
       transform="matrix(1.3333333,0,0,-1.3333333,290.6,133.24853)"
       clip-path="url(#clipPath4)" />
  </g>
</svg>
