<?xml version="1.0" encoding="UTF-8" standalone="no"?>
<!-- Created with Inkscape (http://www.inkscape.org/) -->

<svg
   version="1.1"
   id="svg1"
   width="266.66666"
   height="266.54001"
   viewBox="0 0 266.66666 266.54001"
   sodipodi:docname="Design File.ai"
   xmlns:inkscape="http://www.inkscape.org/namespaces/inkscape"
   xmlns:sodipodi="http://sodipodi.sourceforge.net/DTD/sodipodi-0.dtd"
   xmlns="http://www.w3.org/2000/svg"
   xmlns:svg="http://www.w3.org/2000/svg">
  <defs
     id="defs1">
    <clipPath
       clipPathUnits="userSpaceOnUse"
       id="clipPath2">
      <path
         d="M 0,199.905 H 200 V 0 H 0 Z"
         transform="translate(-72.850002,-100)"
         id="path2" />
    </clipPath>
  </defs>
  <sodipodi:namedview
     id="namedview1"
     pagecolor="#ffffff"
     bordercolor="#000000"
     borderopacity="0.25"
     inkscape:showpageshadow="2"
     inkscape:pageopacity="0.0"
     inkscape:pagecheckerboard="0"
     inkscape:deskcolor="#d1d1d1">
    <inkscape:page
       x="0"
       y="0"
       inkscape:label="1"
       id="page1"
       width="266.66666"
       height="266.54001"
       margin="21.333334 3.9333334 21.206667"
       bleed="0" />
  </sodipodi:namedview>
  <g
     id="layer-MC0"
     inkscape:groupmode="layer"
     inkscape:label="Layer 1">
    <path
       id="path1"
       d="M 0,0 C 0,14.9 12.1,27 27.1,27 42,27 54.2,14.9 54.2,0 54.2,-14.9 42.1,-27.1 27.1,-27.1 12.2,-27.1 0,-14.9 0,0 M -14.7,0 C -14.7,23.1 4,41.8 27.1,41.8 50.2,41.8 68.9,23.1 68.9,0 68.9,-23.1 50.2,-41.8 27.1,-41.8 4,-41.8 -14.7,-23.1 -14.7,0 m -55.2,0 24.3,42 24.2,42 H 27.1 75.6 L 99.9,42 124.2,0 99.9,-42 75.6,-84 H 27.1 -21.4 l -24.2,42 z m 50.1,0 c 0,25.9 21,46.9 46.9,46.9 C 53,46.9 74,25.9 74,0 74,-25.9 53,-46.9 27.1,-46.9 c -25.9,0 -46.9,21 -46.9,46.9"
       style="fill:#000000;fill-opacity:1;fill-rule:evenodd;stroke:none"
       transform="matrix(1.3333333,0,0,-1.3333333,97.133333,133.20667)"
       clip-path="url(#clipPath2)" />
  </g>
</svg>
