<?xml version="1.0" encoding="UTF-8" standalone="no"?><!DOCTYPE svg PUBLIC "-//W3C//DTD SVG 1.1//EN" "http://www.w3.org/Graphics/SVG/1.1/DTD/svg11.dtd"><svg width="100%" height="100%" viewBox="0 0 794 1123" version="1.1" xmlns="http://www.w3.org/2000/svg" xmlns:xlink="http://www.w3.org/1999/xlink" xml:space="preserve" xmlns:serif="http://www.serif.com/" style="fill-rule:evenodd;clip-rule:evenodd;stroke-linejoin:round;stroke-miterlimit:2;"><g id="g36"><path d="M0,0l0,142.604l3.567,1.624c8.791,3.95 17.105,6.466 26.215,7.868c4.491,0.701 14.206,0.956 18.315,0.51c11.18,-1.274 22.902,-4.459 32.522,-8.855l2.516,-1.147l-0.064,-71.223l-0.096,-71.223l-41.472,-0.096l-41.504,-0.064l0.001,0.002Zm45.646,22.963c2.516,0.51 5.925,2.262 7.931,4.077c8.728,7.804 7.581,21.341 -2.325,27.744c-2.867,1.879 -5.479,2.612 -9.333,2.612c-4.937,0 -8.441,-1.37 -12.008,-4.778c-3.727,-3.536 -5.415,-7.485 -5.415,-12.486c0.032,-5.128 1.816,-9.365 5.447,-12.773c4.173,-3.886 10.097,-5.542 15.703,-4.396Zm2.77,63.034c4.141,1.179 7.103,2.962 10.543,6.371c2.739,2.707 3.249,3.408 4.682,6.371c1.879,3.886 2.612,7.008 2.612,11.053c-0.032,11.34 -7.931,21.278 -19.016,23.858c-2.803,0.669 -8.218,0.669 -11.021,0c-11.085,-2.58 -18.984,-12.518 -19.016,-23.858c0,-4.045 0.733,-7.167 2.548,-10.894c3.472,-7.103 9.237,-11.563 17.232,-13.378c2.835,-0.637 8.314,-0.414 11.435,0.478l0.001,-0.001Z" style="fill-rule:nonzero;"/><path d="M40.288,30.597c-2.965,0.388 -5.813,2.383 -7.169,5.019c-0.717,1.434 -1.027,2.752 -1.027,4.476c-0.019,7.034 7.441,11.607 13.777,8.41c5.736,-2.868 6.956,-10.599 2.383,-15.172c-2.131,-2.131 -4.98,-3.1 -7.964,-2.732l-0,-0.001Z" style="fill-rule:nonzero;"/></g></svg>